# xmcd CD database file
#
# Track frame offsets:
#	150
#	24587
#	42122
#	84846
#	104862
#	122992
#	151641
#	174925
#	192054
#	218825
#	227043
#
# Disc length: 4064 seconds
#
# Revision: 0
# Processed by: cddbd v1.4PL0 Copyright (c) Steve Scherf et al.
# Submitted via: CDex 1.50beta10
#
DISCID=830fde0b
DTITLE=Jay Gordon - 6 Strings Outlaw
DYEAR=2003
DGENRE=Blues
TTITLE0=Fire and Brimstone Boogie
TTITLE1=Let It Ring
TTITLE2=The Original Sin
TTITLE3=Freight Train
TTITLE4=Lost In Time
TTITLE5=Pain
TTITLE6=Juke Joint
TTITLE7=Propaganda
TTITLE8=Stretchneck Lill
TTITLE9=Forty Seven Beers
TTITLE10=The Sky Is Crying
EXTD=YEAR: 2003
EXTT0=
EXTT1=
EXTT2=
EXTT3=
EXTT4=
EXTT5=
EXTT6=
EXTT7=
EXTT8=
EXTT9=
EXTT10=
PLAYORDER=
